<?xml version="1.0" encoding="utf-8"?>
<!-- Generator: Adobe Illustrator 17.1.0, SVG Export Plug-In . SVG Version: 6.00 Build 0)  -->
<!DOCTYPE svg PUBLIC "-//W3C//DTD SVG 1.1//EN" "http://www.w3.org/Graphics/SVG/1.1/DTD/svg11.dtd">
<svg version="1.1" id="Layer_1" xmlns="http://www.w3.org/2000/svg" xmlns:xlink="http://www.w3.org/1999/xlink" x="0px" y="0px"
	 viewBox="8.9 534.1 792 224" enable-background="new 8.9 534.1 792 224" xml:space="preserve">
<g>
	<g>
		<path fill="#FCEE21" stroke="#FCEE21" stroke-width="1.6817" stroke-miterlimit="10" d="M176.2,734c0,10.8-13.4,19.9-29.5,19.9
			l0,0c-16.4,0-29.5-8.8-29.5-19.9v-60.6c0-10.8,13.4-19.9,29.5-19.9l0,0c16.4,0,29.5,8.8,29.5,19.9V734L176.2,734z"/>
		<path fill="#FCEE21" stroke="#FCEE21" stroke-width="1.6817" stroke-miterlimit="10" d="M68.7,734c0,10.8-13.4,19.9-29.5,19.9l0,0
			c-16.4,0-29.5-8.8-29.5-19.9v-60.6c0-10.8,13.4-19.9,29.5-19.9l0,0c16.4,0,29.5,8.8,29.5,19.9V734z"/>
		<path fill="none" stroke="#FCEE21" stroke-width="10" stroke-miterlimit="10" d="M30.2,668.9v-56.1c0-23.9,10.8-47,30.1-60.6
			c18.2-12.9,42.4-21,67.2-1.4c17.2,13.7,26.3,35.4,26.3,57.5v60.6"/>
	</g>
	<g>
		<path fill="#FCEE21" d="M304.7,688h-85.1v-36.1h13.2v-78.5h-13.2v-36.1h92.2c17.8,0,32.2,1,42.1,3c9.6,2.3,17.5,6.6,22.9,12.9
			c5.6,6.6,8.3,14.2,8.3,22.9s-2.6,15.2-7.9,20.3c-5.3,5.3-11.9,8.9-19.9,10.9c10.6,3.3,18.9,7.9,24.6,14.5
			c5.6,6.6,8.6,14.2,8.6,22.9c0,10.2-3.3,18.6-9.6,25.9c-6.6,6.9-15.5,11.6-26.9,13.9C342.8,686.7,326.3,688,304.7,688z
			 M290.9,570.5V598h12.9c8.6,0,14.5-1.3,17.2-3.6c2.6-2.6,4-5.9,4-9.9c0-3.6-1.3-6.6-3.6-9.6c-2.3-3-8.9-4.3-19.6-4.3L290.9,570.5
			L290.9,570.5z M290.9,625.6v29.8h13.2c8.3,0,14.2-1,18.3-3.3c3.6-2.3,5.3-5.9,5.3-11.6c0-5-1.7-8.9-5-11.2
			c-3.3-2.3-9.6-3.6-18.9-3.6L290.9,625.6L290.9,625.6z"/>
		<path fill="#FCEE21" d="M406.4,612.3c0-12.6,3-24.9,9.3-36.4c5.9-11.6,15.5-21.6,28.2-29.5c4.6-3,9.3-5,13.9-6.6
			c4.6-1.7,9.9-3,15.5-4s11.6-1.3,17.8-1.3c27.2,0,48,7.9,62.6,23.9c7.3,7.9,12.9,16.2,16.5,25.5c3.6,8.9,5.6,18.9,5.6,28.8
			c0,20.9-7.6,39.4-22.9,54.7c-15.2,15.5-36.1,23.2-62,23.2c-25.2,0-45.7-7.3-61.3-21.9C414.3,653.9,406.4,635.5,406.4,612.3z
			 M471.7,612.3c0,16.9,1.7,28.2,5,33.8c3,5.9,7.9,8.9,14.5,8.9s11.6-3,14.5-8.6c3.3-5.6,5-17.2,5-34.1c0-16.5-1.7-27.9-4.6-33.8
			c-3-5.9-7.9-8.9-14.9-8.9c-6.6,0-11.2,3-14.5,8.6C473.3,583.8,471.7,595.4,471.7,612.3z"/>
		<path fill="#FCEE21" d="M677.5,688h-87.4v-36.1H607l49.3-38.4L607,573.5h-15.9v-36.1h100.4v31.8h-14.9l25.3,22.2l22.6-22.2h-12.9
			v-31.8h83.5v36.1h-22.6l-40.7,34.1l54.1,44.4h14.9V688H699.3v-31.8h15.9l-27.8-25.1l-25.5,25.1h15.8L677.5,688L677.5,688z"/>
	</g>
	<g>
		<path fill="#FCEE21" d="M244.8,757.4h-26.2v-11.9h4v-26.2H219v-11.9h26.2v11.9h-3.3v7.6h11.6v-7.6h-3.3v-11.9h26.2v11.9h-4v26.2
			h3.6v11.9h-26.2v-11.9h3.3v-8.4h-11.6v8.3h3.3V757.4L244.8,757.4z"/>
		<path fill="#FCEE21" d="M331.3,757.4h-47v-11.9h4v-26.2h-4v-11.9h47.3v15.9h-12.9v-4h-11.2v7.6h9.9v10.2h-9.9v8.3h11.2v-4h12.9
			L331.3,757.4L331.3,757.4z"/>
		<path fill="#FCEE21" d="M356.2,757.4h-19.6v-11.9h3.6l9.3-26.2h-4v-11.9H381v11.9h-4l9.6,26.2h3.6v11.9h-25.9v-10.9h4.3l-2-6.3
			H354l-2.3,6.3h4L356.2,757.4L356.2,757.4z M360.8,719.9l-4.6,13.9h8.9L360.8,719.9z"/>
		<path fill="#FCEE21" d="M418.3,757.4h-23.2v-11.9h4v-26.2h-4v-11.9H419c5.3,0,9.9,0.3,13.2,1c3.3,0.7,6.6,2,9.6,4.3
			c3,2,5.3,5,6.9,8.6c1,1.7,1.7,3.6,2,5.6c0.3,2,0.7,4,0.7,6.3c0,4.3-1,8.3-2.6,11.9c-1.7,3.6-4,6.3-6.9,8.3c-2.6,2-5.6,3-8.9,3.6
			C429.9,757,425,757.4,418.3,757.4z M418.3,719.3v26.2h1.7c4.6,0,7.3-1.3,8.9-3.6c1.3-2.3,2-5.6,2-9.3c0-2.3-0.3-4.3-1-6.6
			c-0.7-2.3-1.7-4-3-5c-1.3-1.3-4-1.7-7.9-1.7C418.9,719.3,418.3,719.3,418.3,719.3z"/>
		<path fill="#FCEE21" d="M486.5,757.4h-28.8v-11.9h5v-26.2h-5v-11.9h30.5c6.9,0,11.9,0.7,15.2,2c3.3,1.3,5.6,3.3,6.9,5.6
			c1.7,2.3,2.3,5,2.3,7.9c0,3.6-1,6.3-2.6,8.9c-1.7,2.3-4.3,4-7.3,5c-3,1-7.3,1.7-13.5,1.7h-7.6v6.9h5v11.9L486.5,757.4L486.5,757.4
			z M481.6,718.3v9.3h3.6c2.6,0,4.6-0.3,5.6-1c1-0.7,1.7-2,1.7-3.6c0-1.3-0.3-2.3-1-3c-0.7-0.7-1.3-1.3-2.3-1.7
			c-1-0.3-2.6-0.3-5-0.3L481.6,718.3L481.6,718.3z"/>
		<path fill="#FCEE21" d="M543.6,757.4h-26.2v-11.9h3.6v-26.2h-3.6v-11.9h26.2v11.9h-3.3v7.6h11.6v-7.6h-3.3v-11.9h26.2v11.9h-3.6
			v26.2h3.6v11.9h-26.2v-11.9h3.3v-8.4h-11.6v8.3h3.3V757.4L543.6,757.4z"/>
		<path fill="#FCEE21" d="M580.7,732.2c0-4.3,1-8.3,3-12.2c2-4,5-7.3,9.3-9.9c1.7-1,3-1.7,4.6-2.3c1.6-0.6,3.3-1,5.3-1.3
			c2-0.3,3.6-0.3,5.9-0.3c8.9,0,15.9,2.6,20.6,7.9c2.3,2.6,4.3,5.3,5.6,8.3c1.3,3,2,6.3,2,9.6c0,6.9-2.6,12.9-7.6,18.3
			c-5,5.3-11.9,7.6-20.6,7.6c-8.3,0-14.9-2.3-20.3-7.3C583,746.1,580.7,739.9,580.7,732.2z M602.2,732.2c0,5.6,0.7,9.3,1.7,11.2
			c1,2,2.6,3,5,3s3.6-1,5-3c1-2,1.7-5.6,1.7-11.2c0-5.6-0.7-9.3-1.7-11.2c-1-2-2.6-3-5-3c-2,0-3.6,1-5,3
			C602.5,722.9,602.2,726.5,602.2,732.2z"/>
		<path fill="#FCEE21" d="M662.2,757.4h-20.3v-11.9h4.3v-26.2h-4.3v-11.9h23.6l17.8,26.2v-14.2h-4v-11.9h19.9v11.9h-4.3v38.7h-16.1
			l-20.9-30.2v17.5h4.3V757.4L662.2,757.4z"/>
		<path fill="#FCEE21" d="M753.3,757.4h-47.4v-11.9h4v-26.2h-4v-11.9h47.3v15.9h-12.9v-4h-11.2v7.6h9.9v10.2h-9.9v8.3h11.2v-4h12.9
			L753.3,757.4L753.3,757.4z"/>
		<path fill="#FCEE21" d="M772.8,757.4h-11.2v-15.9h11.2c1.3,4.3,4,6.6,7.6,6.6c2.6,0,4-1,4-3.3c0-1-0.3-2-1.3-2.6
			c-1-0.7-3-2-6.3-3.3c-4-2-6.9-3.3-8.9-4.6c-1.7-1.3-3.3-3-4.6-5c-1.3-2-2-4.6-2-6.9c0-4.6,1.7-8.3,4.6-10.9c2.9-2.6,6.6-4,10.9-4
			c4.3,0,7.9,1.3,10.9,3.6v-3.6h11.2v14.2H788c-1.3-4-3.6-5.9-7.3-5.9c-2.3,0-3.6,1-3.6,3c0,1,0.3,1.7,1,2.3s2.6,1.7,6.3,3.6
			c5,2.3,7.9,4.3,9.6,5.3c1,0.7,1.7,1.3,2.6,2.3c1,1,1.7,2,2.3,3c1.3,2.3,2,5,2,7.6c0,4.3-1.7,7.6-4.6,10.6c-3,3-6.9,4.3-11.6,4.3
			c-4.3,0-8.3-1.3-11.9-4V757.4z"/>
	</g>
</g>
</svg>
