<?xml version="1.0" encoding="utf-8"?>
<!-- Generator: Adobe Illustrator 17.1.0, SVG Export Plug-In . SVG Version: 6.00 Build 0)  -->
<!DOCTYPE svg PUBLIC "-//W3C//DTD SVG 1.1//EN" "http://www.w3.org/Graphics/SVG/1.1/DTD/svg11.dtd">
<svg version="1.1" id="Layer_1" xmlns="http://www.w3.org/2000/svg" xmlns:xlink="http://www.w3.org/1999/xlink" x="0px" y="0px"
	 viewBox="8.9 534.1 792 224" enable-background="new 8.9 534.1 792 224" xml:space="preserve">
<g>
	<g>
		<path fill="#231F20" stroke="#231F20" stroke-width="1.6817" stroke-miterlimit="10" d="M176.2,734c0,10.8-13.4,19.9-29.5,19.9
			l0,0c-16.4,0-29.5-8.8-29.5-19.9v-60.6c0-10.8,13.4-19.9,29.5-19.9l0,0c16.4,0,29.5,8.8,29.5,19.9V734L176.2,734z"/>
		<path fill="#231F20" stroke="#231F20" stroke-width="1.6817" stroke-miterlimit="10" d="M68.7,734c0,10.8-13.4,19.9-29.5,19.9l0,0
			c-16.4,0-29.5-8.8-29.5-19.9v-60.6c0-10.8,13.4-19.9,29.5-19.9l0,0c16.4,0,29.5,8.8,29.5,19.9V734z"/>
		<path fill="none" stroke="#231F20" stroke-width="10" stroke-miterlimit="10" d="M30.2,668.9v-56.1c0-23.9,10.8-47,30.1-60.6
			c18.2-12.9,42.4-21,67.2-1.4c17.2,13.7,26.3,35.4,26.3,57.5v60.6"/>
	</g>
	<g>
		<path fill="#231F20" d="M304.7,688h-85.1v-36.1h13.2v-78.5h-13.2v-36.1h92.2c17.8,0,32.2,1,42.1,3c9.6,2.3,17.5,6.6,22.9,12.9
			c5.6,6.6,8.3,14.2,8.3,22.9s-2.6,15.2-7.9,20.3c-5.3,5.3-11.9,8.9-19.9,10.9c10.6,3.3,18.9,7.9,24.6,14.5
			c5.6,6.6,8.6,14.2,8.6,22.9c0,10.2-3.3,18.6-9.6,25.9c-6.6,6.9-15.5,11.6-26.9,13.9C342.8,686.7,326.3,688,304.7,688z
			 M290.9,570.5V598h12.9c8.6,0,14.5-1.3,17.2-3.6c2.6-2.6,4-5.9,4-9.9c0-3.6-1.3-6.6-3.6-9.6c-2.3-3-8.9-4.3-19.6-4.3L290.9,570.5
			L290.9,570.5z M290.9,625.6v29.8h13.2c8.3,0,14.2-1,18.3-3.3c3.6-2.3,5.3-5.9,5.3-11.6c0-5-1.7-8.9-5-11.2
			c-3.3-2.3-9.6-3.6-18.9-3.6L290.9,625.6L290.9,625.6z"/>
		<path fill="#231F20" d="M406.4,612.3c0-12.6,3-24.9,9.3-36.4c5.9-11.6,15.5-21.6,28.2-29.5c4.6-3,9.3-5,13.9-6.6
			c4.6-1.7,9.9-3,15.5-4s11.6-1.3,17.8-1.3c27.2,0,48,7.9,62.6,23.9c7.3,7.9,12.9,16.2,16.5,25.5c3.6,8.9,5.6,18.9,5.6,28.8
			c0,20.9-7.6,39.4-22.9,54.7c-15.2,15.5-36.1,23.2-62,23.2c-25.2,0-45.7-7.3-61.3-21.9C414.3,653.9,406.4,635.5,406.4,612.3z
			 M471.7,612.3c0,16.9,1.7,28.2,5,33.8c3,5.9,7.9,8.9,14.5,8.9s11.6-3,14.5-8.6c3.3-5.6,5-17.2,5-34.1c0-16.5-1.7-27.9-4.6-33.8
			c-3-5.9-7.9-8.9-14.9-8.9c-6.6,0-11.2,3-14.5,8.6C473.3,583.8,471.7,595.4,471.7,612.3z"/>
		<path fill="#231F20" d="M677.5,688h-87.4v-36.1H607l49.3-38.4L607,573.5h-15.9v-36.1h100.4v31.8h-14.9l25.3,22.2l22.6-22.2h-12.9
			v-31.8h83.5v36.1h-22.6l-40.7,34.1l54.1,44.4h14.9V688H699.3v-31.8h15.9l-27.8-25.1l-25.5,25.1h15.8L677.5,688L677.5,688z"/>
	</g>
	<g>
		<path fill="#231F20" d="M243.1,757.5h-24.5v-11.1h3.7v-24.5h-3.4v-11.1h24.5v11.1h-3.1v7.1h10.9v-7.1h-3.1v-11.1h24.5v11.1h-3.7
			v24.5h3.4v11.1h-24.5v-11.1h3.1v-7.9H240v7.8h3.1V757.5L243.1,757.5z"/>
		<path fill="#231F20" d="M328.1,757.5h-44v-11.1h3.7v-24.5h-3.7v-11.1h44.3v14.9h-12.1v-3.7h-10.5v7.1h9.3v9.5h-9.3v7.8h10.5v-3.7
			h12.1L328.1,757.5L328.1,757.5z"/>
		<path fill="#231F20" d="M355.4,757.5h-18.3v-11.1h3.4l8.7-24.5h-3.7v-11.1h33.2v11.1h-3.7l9,24.5h3.4v11.1H363v-10.2h4l-1.9-5.9
			h-11.8l-2.2,5.9h3.7L355.4,757.5L355.4,757.5z M359.7,722.4l-4.3,13h8.3L359.7,722.4z"/>
		<path fill="#231F20" d="M417.6,757.5h-21.7v-11.1h3.7v-24.5h-3.7v-11.1h22.4c5,0,9.3,0.3,12.4,0.9c3.1,0.7,6.2,1.9,9,4
			c2.8,1.9,5,4.7,6.5,8c0.9,1.6,1.6,3.4,1.9,5.2c0.3,1.9,0.7,3.7,0.7,5.9c0,4-0.9,7.8-2.4,11.1c-1.6,3.4-3.7,5.9-6.5,7.8
			c-2.4,1.9-5.2,2.8-8.3,3.4C428.5,757.1,423.9,757.5,417.6,757.5z M417.6,721.8v24.5h1.6c4.3,0,6.8-1.2,8.3-3.4
			c1.2-2.2,1.9-5.2,1.9-8.7c0-2.2-0.3-4-0.9-6.2c-0.7-2.2-1.6-3.7-2.8-4.7c-1.2-1.2-3.7-1.6-7.4-1.6
			C418.2,721.8,417.6,721.8,417.6,721.8z"/>
		<path fill="#231F20" d="M485.5,757.5h-27v-11.1h4.7v-24.5h-4.7v-11.1h28.5c6.5,0,11.1,0.7,14.2,1.9c3.1,1.2,5.2,3.1,6.5,5.2
			c1.6,2.2,2.2,4.7,2.2,7.4c0,3.4-0.9,5.9-2.4,8.3c-1.6,2.2-4,3.7-6.8,4.7c-2.8,0.9-6.8,1.6-12.6,1.6h-7.1v6.5h4.7L485.5,757.5
			L485.5,757.5L485.5,757.5z M480.9,720.9v8.7h3.4c2.4,0,4.3-0.3,5.2-0.9s1.6-1.9,1.6-3.4c0-1.2-0.3-2.2-0.9-2.8s-1.2-1.2-2.2-1.6
			c-0.9-0.3-2.4-0.3-4.7-0.3L480.9,720.9L480.9,720.9z"/>
		<path fill="#231F20" d="M543,757.5h-24.5v-11.1h3.4v-24.5h-3.4v-11.1H543v11.1h-3.1v7.1h10.9v-7.1h-3.1v-11.1h24.5v11.1h-3.4v24.5
			h3.4v11.1h-24.5v-11.1h3.1v-7.9h-10.9v7.8h3.1V757.5L543,757.5z"/>
		<path fill="#231F20" d="M581.7,733.9c0-4,0.9-7.8,2.8-11.4c1.9-3.7,4.7-6.8,8.7-9.3c1.6-0.9,2.8-1.6,4.3-2.2
			c1.5-0.6,3.1-0.9,5-1.2c1.9-0.3,3.4-0.3,5.5-0.3c8.3,0,14.9,2.4,19.3,7.4c2.2,2.4,4,5,5.2,7.8c1.2,2.8,1.9,5.9,1.9,9
			c0,6.5-2.4,12.1-7.1,17.1c-4.7,5-11.1,7.1-19.3,7.1c-7.8,0-13.9-2.2-19-6.8C583.9,746.9,581.7,741.1,581.7,733.9z M601.8,733.9
			c0,5.2,0.7,8.7,1.6,10.5c0.9,1.9,2.4,2.8,4.7,2.8s3.4-0.9,4.7-2.8c0.9-1.9,1.6-5.2,1.6-10.5s-0.7-8.7-1.6-10.5
			c-0.9-1.9-2.4-2.8-4.7-2.8c-1.9,0-3.4,0.9-4.7,2.8C602.1,725.2,601.8,728.6,601.8,733.9z"/>
		<path fill="#231F20" d="M662,757.5h-19v-11.1h4v-24.5h-4v-11.1h22.1l16.7,24.5v-13.3H678v-11.1h18.6v11.1h-4v36.2h-15.1L658,729.9
			v16.4h4V757.5L662,757.5z"/>
		<path fill="#231F20" d="M751.3,757.5h-44.4v-11.1h3.7v-24.5h-3.7v-11.1h44.3v14.9h-12.1v-3.7h-10.5v7.1h9.3v9.5h-9.3v7.8h10.5
			v-3.7h12.1L751.3,757.5L751.3,757.5z"/>
		<path fill="#231F20" d="M773.6,757.5h-10.5v-14.9h10.5c1.2,4,3.7,6.2,7.1,6.2c2.4,0,3.7-0.9,3.7-3.1c0-0.9-0.3-1.9-1.2-2.4
			c-0.9-0.7-2.8-1.9-5.9-3.1c-3.7-1.9-6.5-3.1-8.3-4.3c-1.6-1.2-3.1-2.8-4.3-4.7c-1.2-1.9-1.9-4.3-1.9-6.5c0-4.3,1.6-7.8,4.3-10.2
			c2.7-2.4,6.2-3.7,10.2-3.7c4,0,7.4,1.2,10.2,3.4v-3.4H798v13.3h-10.2c-1.2-3.7-3.4-5.5-6.8-5.5c-2.2,0-3.4,0.9-3.4,2.8
			c0,0.9,0.3,1.6,0.9,2.2c0.7,0.6,2.4,1.6,5.9,3.4c4.7,2.2,7.4,4,9,5c0.9,0.7,1.6,1.2,2.4,2.2c0.9,0.9,1.6,1.9,2.2,2.8
			c1.2,2.2,1.9,4.7,1.9,7.1c0,4-1.6,7.1-4.3,9.9c-2.8,2.8-6.5,4-10.9,4c-4,0-7.8-1.2-11.1-3.7V757.5z"/>
	</g>
</g>
</svg>
