<?xml version="1.0" encoding="utf-8"?>
<!-- Generator: Adobe Illustrator 17.1.0, SVG Export Plug-In . SVG Version: 6.00 Build 0)  -->
<!DOCTYPE svg PUBLIC "-//W3C//DTD SVG 1.1//EN" "http://www.w3.org/Graphics/SVG/1.1/DTD/svg11.dtd">
<svg version="1.1" id="Layer_1" xmlns="http://www.w3.org/2000/svg" xmlns:xlink="http://www.w3.org/1999/xlink" x="0px" y="0px"
	 viewBox="0 0 1774 103.428" enable-background="new 0 0 1774 103.428" xml:space="preserve">
<g>
	<path fill="#FCEE21" stroke="#FCEE21" stroke-miterlimit="10" d="M44.762,94.286c0,4.772-4.893,8.641-10.928,8.641l0,0
		c-6.036,0-10.928-3.869-10.928-8.641V67.855c0-4.772,4.893-8.641,10.928-8.641l0,0c6.036,0,10.928,3.869,10.928,8.641V94.286z"/>
	<path fill="#FCEE21" stroke="#FCEE21" stroke-miterlimit="10" d="M98.761,94.286c0,4.772-4.893,8.641-10.928,8.641l0,0
		c-6.036,0-10.928-3.869-10.928-8.641V67.855c0-4.772,4.893-8.641,10.928-8.641l0,0c6.036,0,10.928,3.869,10.928,8.641V94.286z"/>
	<path fill="none" stroke="#FCEE21" stroke-width="5" stroke-miterlimit="10" d="M33.834,59.214V34.788
		c0-10.411,4.738-20.413,13.185-26.499C54.949,2.576,65.58-0.96,76.401,7.716c7.504,6.016,11.432,15.453,11.432,25.071v26.427"/>
</g>
<g>
	<path fill="#FCEE21" d="M187.753,102.972h-57.642v-24.39h8.862V25.481h-8.862V1.092h62.256c12.206,0,21.654,0.708,28.345,2.124
		c6.592,1.465,11.767,4.371,15.527,8.716c3.76,4.444,5.64,9.62,5.64,15.527c0,5.762-1.783,10.353-5.347,13.77
		c-3.662,3.516-8.105,5.958-13.33,7.324c7.178,2.149,12.695,5.469,16.553,9.961c3.906,4.59,5.859,9.741,5.859,15.454
		c0,6.837-2.197,12.646-6.592,17.432c-4.395,4.736-10.426,7.837-18.091,9.302C213.362,102.215,202.303,102.972,187.753,102.972z
		 M178.378,23.431v18.604h8.716c5.907,0,9.789-0.854,11.646-2.563c1.758-1.708,2.637-3.955,2.637-6.738
		c0-2.392-0.806-4.541-2.417-6.445s-6.031-2.856-13.257-2.856H178.378z M178.378,60.565v20.068h8.862
		c5.664,0,9.741-0.732,12.231-2.197c2.441-1.465,3.662-4.053,3.662-7.764c0-3.467-1.099-6.03-3.296-7.69
		c-2.197-1.611-6.445-2.417-12.744-2.417H178.378z"/>
	<path fill="#FCEE21" d="M256.406,51.775c0-8.496,2.075-16.723,6.226-24.683c4.102-7.91,10.474-14.575,19.116-19.995
		c3.076-1.904,6.237-3.417,9.484-4.541c3.247-1.123,6.775-1.989,10.584-2.6c3.809-0.61,7.812-0.916,12.012-0.916
		c18.262,0,32.397,5.347,42.407,16.04c4.98,5.273,8.74,10.986,11.279,17.139c2.538,6.152,3.809,12.671,3.809,19.556
		c0,14.209-5.176,26.562-15.527,37.061c-10.353,10.499-24.342,15.747-41.968,15.747c-17.041,0-30.86-4.932-41.455-14.795
		C261.728,79.974,256.406,67.303,256.406,51.775z M300.645,51.775c0,11.328,1.099,18.97,3.296,22.925
		c2.099,4.004,5.395,6.006,9.888,6.006c4.442,0,7.764-1.929,9.961-5.786c2.197-3.906,3.296-11.62,3.296-23.145
		c0-11.181-1.074-18.798-3.223-22.852c-2.1-4.003-5.445-6.006-10.034-6.006c-4.395,0-7.69,1.93-9.888,5.786
		C301.743,32.562,300.645,40.252,300.645,51.775z"/>
	<path fill="#FCEE21" d="M439.655,102.972h-59.033v-24.39h11.426l33.398-26.074l-33.398-27.026h-10.84V1.092h67.822v21.46H438.85
		l17.139,14.941l15.161-14.941h-8.789V1.092h56.543v24.39h-15.234L476.203,48.48l36.401,30.103h10.181v24.39H454.23v-21.46h10.693
		L446.101,64.52l-17.285,16.992h10.84V102.972z"/>
	<path fill="#FCEE21" d="M624.592,102.972h-53.613v-24.39h7.69V25.481h-7.837V1.092h53.76v24.39h-6.519v15.527h23.584V25.481h-6.592
		V1.092h53.687v24.39h-7.69v53.101h7.69v24.39h-53.687v-24.39h6.592V61.883h-23.584v16.699h6.519V102.972z"/>
	<path fill="#FCEE21" d="M802.479,102.972h-97.192v-24.39h7.91V25.481h-8.057V1.092h97.339v32.593h-26.733v-8.203h-23.145v15.674
		h20.142v20.728h-20.142v16.699h23.145v-8.203h26.733V102.972z"/>
	<path fill="#FCEE21" d="M853.571,102.972h-40.356v-24.39h7.764l19.116-53.101h-8.203V1.092h73.242v24.39h-8.203l19.482,53.101
		h7.471v24.39H870.71V80.633h8.936l-3.882-12.817h-26.074l-4.468,12.817h8.35V102.972z M863.166,26.946l-9.595,28.198h18.237
		L863.166,26.946z"/>
	<path fill="#FCEE21" d="M981.653,102.972h-47.388v-24.39h7.983V25.481h-7.983V1.092h48.779c11.133,0,20.215,0.685,27.246,2.051
		c7.079,1.368,13.744,4.175,19.995,8.423c6.2,4.297,11.084,10.107,14.648,17.432c1.758,3.516,3.101,7.276,4.028,11.279
		c0.927,4.004,1.392,8.203,1.392,12.598c0,8.838-1.88,16.895-5.64,24.17c-3.711,7.227-8.423,12.77-14.136,16.626
		c-5.566,3.857-11.671,6.372-18.311,7.544C1005.677,102.386,995.471,102.972,981.653,102.972z M981.653,25.481v53.101h3.735
		c9.276,0,15.308-2.465,18.091-7.397c2.734-4.932,4.102-11.133,4.102-18.604c0-4.492-0.586-8.936-1.758-13.33
		c-1.221-4.395-3.369-7.788-6.445-10.181c-3.028-2.392-8.448-3.589-16.26-3.589H981.653z"/>
	<path fill="#FCEE21" d="M1121.998,102.972h-59.546v-24.39h9.888V25.481h-9.888V1.092h62.476c14.355,0,24.854,1.392,31.494,4.175
		c6.64,2.833,11.523,6.69,14.648,11.572c3.124,4.883,4.688,10.23,4.688,16.04c0,7.178-1.856,13.136-5.566,17.871
		c-3.711,4.786-8.618,8.252-14.722,10.4c-6.006,2.1-15.283,3.149-27.832,3.149h-15.894v14.282h10.254V102.972z M1111.744,23.431
		v19.116h7.69c5.371,0,9.276-0.634,11.719-1.904c2.344-1.269,3.516-3.735,3.516-7.397c0-2.392-0.635-4.418-1.904-6.079
		c-1.221-1.611-2.856-2.637-4.907-3.076c-1.953-0.439-5.273-0.659-9.961-0.659H1111.744z"/>
	<path fill="#FCEE21" d="M1239.143,102.972h-53.613v-24.39h7.69V25.481h-7.837V1.092h53.76v24.39h-6.519v15.527h23.584V25.481
		h-6.592V1.092h53.687v24.39h-7.69v53.101h7.69v24.39h-53.687v-24.39h6.592V61.883h-23.584v16.699h6.519V102.972z"/>
	<path fill="#FCEE21" d="M1315.457,51.775c0-8.496,2.075-16.723,6.226-24.683c4.102-7.91,10.474-14.575,19.116-19.995
		c3.076-1.904,6.237-3.417,9.484-4.541c3.247-1.123,6.775-1.989,10.584-2.6c3.809-0.61,7.812-0.916,12.012-0.916
		c18.262,0,32.397,5.347,42.407,16.04c4.98,5.273,8.74,10.986,11.279,17.139c2.538,6.152,3.809,12.671,3.809,19.556
		c0,14.209-5.176,26.562-15.527,37.061c-10.353,10.499-24.342,15.747-41.968,15.747c-17.041,0-30.86-4.932-41.455-14.795
		C1320.778,79.974,1315.457,67.303,1315.457,51.775z M1359.695,51.775c0,11.328,1.099,18.97,3.296,22.925
		c2.099,4.004,5.395,6.006,9.888,6.006c4.442,0,7.764-1.929,9.961-5.786c2.197-3.906,3.296-11.62,3.296-23.145
		c0-11.181-1.074-18.798-3.223-22.852c-2.1-4.003-5.445-6.006-10.034-6.006c-4.395,0-7.69,1.93-9.888,5.786
		C1360.794,32.562,1359.695,40.252,1359.695,51.775z"/>
	<path fill="#FCEE21" d="M1483.42,102.972h-41.821v-24.39h8.936V25.481h-8.936V1.092h48.267l37.061,53.247V25.481h-8.276V1.092
		h41.089v24.39h-8.862v78.809h-33.545l-42.92-61.597v35.889h9.009V102.972z"/>
	<path fill="#FCEE21" d="M1670.896,102.972h-97.192v-24.39h7.91V25.481h-8.057V1.092h97.339v32.593h-26.733v-8.203h-23.145v15.674
		h20.142v20.728h-20.142v16.699h23.145v-8.203h26.733V102.972z"/>
	<path fill="#FCEE21" d="M1711.198,102.972h-22.925V70.306h22.925c2.734,8.888,7.885,13.33,15.454,13.33
		c5.468,0,8.203-2.197,8.203-6.592c0-2.295-0.952-4.199-2.856-5.713c-2.051-1.659-6.372-3.955-12.964-6.885
		c-8.302-3.76-14.404-7.006-18.311-9.741c-3.662-2.49-6.787-5.933-9.375-10.327c-2.589-4.345-3.882-9.155-3.882-14.429
		c0-9.472,3.076-16.87,9.229-22.192c6.104-5.321,13.623-7.983,22.559-7.983s16.504,2.54,22.705,7.617V1.092h23.071v29.004h-22.778
		c-2.783-8.007-7.716-12.012-14.795-12.012c-4.98,0-7.471,2.124-7.471,6.372c0,2.051,0.707,3.589,2.124,4.614
		c1.366,1.075,5.786,3.442,13.257,7.104c10.009,4.98,16.699,8.619,20.068,10.913c1.709,1.124,3.454,2.699,5.236,4.725
		c1.782,2.026,3.26,4.113,4.432,6.262c2.685,4.786,4.028,9.961,4.028,15.527c0,8.545-3.175,15.772-9.521,21.68
		c-6.348,6.006-14.355,9.009-24.023,9.009c-8.984,0-17.114-2.661-24.39-7.983V102.972z"/>
</g>
</svg>
