<?xml version="1.0" encoding="utf-8"?>
<!-- Generator: Adobe Illustrator 17.1.0, SVG Export Plug-In . SVG Version: 6.00 Build 0)  -->
<!DOCTYPE svg PUBLIC "-//W3C//DTD SVG 1.1//EN" "http://www.w3.org/Graphics/SVG/1.1/DTD/svg11.dtd">
<svg version="1.1" id="Layer_1" xmlns="http://www.w3.org/2000/svg" xmlns:xlink="http://www.w3.org/1999/xlink" x="0px" y="0px"
	 viewBox="0 0 76.856 103.428" enable-background="new 0 0 76.856 103.428" xml:space="preserve">
<g>
	<path stroke="#231F20" stroke-miterlimit="10" d="M22.357,94.286c0,4.772-4.893,8.641-10.928,8.641l0,0
		c-6.036,0-10.928-3.869-10.928-8.641V67.855c0-4.772,4.893-8.641,10.928-8.641l0,0c6.036,0,10.928,3.869,10.928,8.641V94.286z"/>
	<path stroke="#231F20" stroke-miterlimit="10" d="M76.356,94.286c0,4.772-4.893,8.641-10.928,8.641l0,0
		c-6.036,0-10.928-3.869-10.928-8.641V67.855c0-4.772,4.893-8.641,10.928-8.641l0,0c6.036,0,10.928,3.869,10.928,8.641V94.286z"/>
	<path fill="none" stroke="#231F20" stroke-width="5" stroke-miterlimit="10" d="M11.428,59.214V34.788
		c0-10.411,4.738-20.413,13.185-26.499c7.931-5.713,18.561-9.249,29.383-0.573c7.504,6.016,11.432,15.453,11.432,25.071v26.427"/>
</g>
</svg>
