<?xml version="1.0" encoding="utf-8"?>
<!-- Generator: Adobe Illustrator 17.1.0, SVG Export Plug-In . SVG Version: 6.00 Build 0)  -->
<!DOCTYPE svg PUBLIC "-//W3C//DTD SVG 1.1//EN" "http://www.w3.org/Graphics/SVG/1.1/DTD/svg11.dtd">
<svg version="1.1" id="Layer_1" xmlns="http://www.w3.org/2000/svg" xmlns:xlink="http://www.w3.org/1999/xlink" x="0px" y="0px"
	 viewBox="0 0 82 82" enable-background="new 0 0 82 82" xml:space="preserve">
<g>
	<rect x="2.5" y="2.5" fill="none" width="77" height="77"/>
	<path d="M82,82H0V0h82V82z M5,77h72V5H5V77z"/>
</g>
<g>
	<path d="M48.7,72.8V47h-4.8v-7.3h4.8v-4.3c0-3.2,1.1-5.9,3.2-7.9c2.1-2,5-3.1,8.7-3.1c3.9,0,6.9,1.1,9,3.2l-4.8,5.3
		c-0.6-0.7-1.7-1-3.2-1c-1.1,0-2.1,0.3-2.8,1c-0.7,0.7-1.1,1.9-1.1,3.6v3h4.8V47h-4.8v25.8H48.7z"/>
</g>
</svg>
