<?xml version="1.0" encoding="utf-8"?>
<!-- Generator: Adobe Illustrator 17.1.0, SVG Export Plug-In . SVG Version: 6.00 Build 0)  -->
<!DOCTYPE svg PUBLIC "-//W3C//DTD SVG 1.1//EN" "http://www.w3.org/Graphics/SVG/1.1/DTD/svg11.dtd">
<svg version="1.1" id="Layer_1" xmlns="http://www.w3.org/2000/svg" xmlns:xlink="http://www.w3.org/1999/xlink" x="0px" y="0px"
	 viewBox="0 0 82 82" enable-background="new 0 0 82 82" xml:space="preserve">
<g>
	<rect x="2.5" y="2.5" fill="none" width="77" height="77"/>
	<path d="M82,82H0V0h82V82z M5,77h72V5H5V77z"/>
</g>
<g>
	<path d="M57.4,72.8c-4.4,0-7.9-1.2-10.5-3.7c-2.6-2.5-3.9-5.6-3.9-9.5V42.9h-5.8v-8.8h5.8V23.6L54,22.4v11.7h5.8v8.8H54v15.2
		c0,2.1,0.4,3.5,1.3,4.4c0.9,0.8,2,1.3,3.4,1.3c0.4,0,1.4-0.2,2.9-0.5l2.3,7.8C62,72.2,59.8,72.8,57.4,72.8z"/>
</g>
</svg>
